<svg height="60" viewBox="0 0 60 60" width="60" xmlns="http://www.w3.org/2000/svg"><g fill="none" fill-rule="evenodd"><path d="m0 0h60v60h-60z" fill="#fff"/><path d="m46.8828521 16c1.9816658 0 3.2859188 1.627625 2.9127905 3.625l-.3385919 1.8125h3.5899743c3.9579467 0 6.5725148 3.251625 5.8255811 7.25l-2.0315513 10.875c-.1869027 1.0005-1.1409511 1.8125-2.133579 1.8125h-3.9220469c-1.1365685 2.106125-3.3929993 3.625-5.7300726 3.625s-4.0260242-1.518875-4.3775001-3.625h-6.0455167c-1.1365684 2.106125-3.3947943 3.625-5.7300725 3.625-2.3352783 0-4.0260242-1.518875-4.3775001-3.625h-2.1270598c-.9926278 0-1.6432979-.812-1.4563952-1.8125l1.1666881-6.2515-20.108.0002245v-2.6632653l20.606-.0009592.497-2.663-15.82793573.0006939v-2.6632653l16.32593573-.0004286.497-2.663-11.5478715.0001633v-2.6632653l12.0458715-.000898.0698226-.369c.3731282-1.997375 2.2854922-3.625 4.267158-3.625zm-.4731283 21.75c-.9890379 0-1.9470149.8138125-2.133579 1.8125-.1869027 1.0005.4673573 1.8125 1.4563953 1.8125.9890379 0 1.9466763-.812 2.133579-1.8125.1865641-.9986875-.4673574-1.8125-1.4563953-1.8125zm-16.1548843 0c-.9890379 0-1.9470149.8138125-2.133579 1.8125-.1869028 1.0005.4673573 1.8125 1.4563952 1.8125.989038 0 1.9466763-.812 2.1335791-1.8125.1865641-.9986875-.4673574-1.8125-1.4563953-1.8125zm15.9490338-18.125h-17.9480764l-3.3859188 18.125h.3302776c1.1383634-2.106125 3.3965893-3.625 5.7318676-3.625 2.3352782 0 4.0260241 1.518875 4.3775 3.625h6.0437217c.4656404-.859125 1.1087524-1.6113125 1.877453-2.2094375zm6.165968 5.4375h-3.5899743l-1.6929594 9.0625c2.3370732 0 4.0260241 1.518875 4.3775 3.625h2.1252648l1.6929594-9.0625c.3734668-1.9991875-.9311247-3.625-2.9127905-3.625zm1.4563952 1.8125-.6771837 3.625h-3.5899743l.6771837-3.625z" fill="#0081b2"/></g></svg>