<svg height="47" viewBox="0 0 43 47" width="43" xmlns="http://www.w3.org/2000/svg"><g fill="none" fill-rule="evenodd"><path d="m-9-7h60v60h-60z"/><g fill="#f26100"><path d="m21.9408523 14.0881959-4.3863589-4.59094775 1.4719325-1.54009429 2.9144264 3.04351964 4.9898511-5.22898679 1.4792922 1.54742808zm.5151763-14.0881959c-4.599789 0-8.3384976 3.908906-8.3384976 8.727201s8.3384976 13.0908015 8.3384976 13.0908015 8.3458573-8.2725065 8.3458573-13.0908015-3.7387085-8.727201-8.3458573-8.727201z"/><path d="m30.0743324 41.4906285h-18.2823354c.1385578.307504.2187754.6579155.2187754 1.0154782 0 .4076216-.1020952.7937893-.2771155 1.1298983h18.3990156c-.1750203-.336109-.2771155-.7222767-.2771155-1.1298983 0-.3575627.0802176-.7079742.2187754-1.0154782zm-3.2597542-8.7960438v-4.9200635h3.6608426l2.2388021 4.9200635zm-2.7128157 0h-10.7418748l2.136707-4.9200635h8.6051678zm17.7499819-6.336012-3.099319-1.82357-.1093877-.05721c-.1385578-.0643613-.2771156-.0929664-.4229659-.0929664-.4229659 0-.8313467.2645965-.977197.700823l-2.4357001 6.278802-2.8440809-5.9641467h-18.1875327l-3.4420672 7.2942801h-3.44935961c-5.16310072 0-6.88413429 3.4612075-6.88413429 5.4707102v3.6471401c0 1.0083269.7730066 1.82357 1.72103357 1.82357h5.46209384c-.17502036-.336109-.27711558-.7222767-.27711558-1.1298983 0-.3575627.08021767-.7079742.21877546-1.0154782h-4.93703275v-3.3253336c0-.9296632.84593176-3.3253336 4.69637975-3.3253336h30.99318931c.6490339 0 1.2105575.6293104 1.2470201 1.3730409l.0072925.1644789v5.1131474h-4.3973866c.1458503.307504.226068.6579155.226068 1.0154782 0 .4076216-.1020953.7937893-.2771156 1.1298983h4.9151552c.948027 0 1.7210336-.8152431 1.7210336-1.82357v-5.4707102l-.0072926-.2002351c-.0948027-1.9165364-1.5970608-3.446905-3.4347746-3.446905h-1.0501222l1.9689791-5.7710628 1.9908567 1.1728058.1093877.0572101c.1312653.05721.2771156.085815.4156733.085815.3500408 0 .7000815-.1787814.8896869-.4934366.2989931-.4791341.1385578-1.1012933-.3500407-1.3873435z"/><path d="m8.98388339 45.0477581c-1.486191 0-2.69516502-1.208974-2.69516502-2.695165s1.20897402-2.695165 2.69516502-2.695165c1.48619101 0 2.69516501 1.208974 2.69516501 2.695165s-1.208974 2.695165-2.69516501 2.695165m0-6.5454007c-2.12533013 0-3.85023574 1.7249056-3.85023574 3.8502357s1.72490561 3.8502357 3.85023574 3.8502357c2.12533011 0 3.85023571-1.7249056 3.85023571-3.8502357s-1.7249056-3.8502357-3.85023571-3.8502357"/><path d="m9.62558934 44.129625c-.93985241 0-1.7553126-.539033-2.15613201-1.3268505-.16585631-.3248019-.26260582-.6979786-.26260582-1.0918873 0-.345534.07601747-.6841573.20732038-.9813165.38008738-.8500136 1.23010096-1.4374214 2.21141745-1.4374214.98131646 0 1.83133006.5874078 2.21141746 1.4374214.1313029.2971592.2073204.6357825.2073204.9813165 0 .3939087-.0967495.7670854-.2626058 1.0918873-.4008195.7878175-1.2162796 1.3268505-2.15613206 1.3268505m4.38137086-3.4000543c-.4491942-2.0040971-2.2459709-3.5106252-4.38137086-3.5106252-2.13539997 0-3.93217665 1.5065281-4.38137082 3.5106252-.07601747.3178912-.11057087.6426932-.11057087.9813165 0 .3731766.04837476.7463533.13821359 1.0918873.48374757 1.9488116 2.25288153 3.4000543 4.3537281 3.4000543 2.10084656 0 3.86998056-1.4512427 4.35372806-3.4000543.0898389-.345534.1382136-.7187107.1382136-1.0918873 0-.3386233-.0345534-.6634253-.1105708-.9813165"/><path d="m32.0852978 45.0477581c-1.4938915 0-2.695165-1.208974-2.695165-2.695165s1.2012735-2.695165 2.695165-2.695165c1.486191 0 2.695165 1.208974 2.695165 2.695165s-1.208974 2.695165-2.695165 2.695165m0-6.5454007c-2.1253301 0-3.8502357 1.7249056-3.8502357 3.8502357s1.7249056 3.8502357 3.8502357 3.8502357c2.1176297 0 3.8502357-1.7249056 3.8502357-3.8502357s-1.732606-3.8502357-3.8502357-3.8502357"/><path d="m31.4435919 44.129625c-.9467631 0-1.7553126-.539033-2.1561321-1.3268505-.1658563-.3248019-.2626058-.6979786-.2626058-1.0918873 0-.345534.0760175-.6841573.2073204-.9813165.3800874-.8500136 1.2231903-1.4374214 2.2114175-1.4374214.9813164 0 1.83133.5874078 2.2045067 1.4374214.1382136.2971592.2142311.6357825.2142311.9813165 0 .3939087-.0967495.7670854-.2626058 1.0918873-.4008194.7878175-1.2162796 1.3268505-2.156132 1.3268505m4.3813708-3.4000543c-.4491942-2.0040971-2.2459709-3.5106252-4.3813708-3.5106252-2.1423107 0-3.9390874 1.5065281-4.3813709 3.5106252-.0760174.3178912-.1105708.6426932-.1105708.9813165 0 .3731766.0483747.7463533.1382136 1.0918873.4837475 1.9488116 2.2528815 3.4000543 4.3537281 3.4000543 2.1008465 0 3.8699805-1.4512427 4.3537281-3.4000543.0898388-.345534.1382135-.7187107.1382135-1.0918873 0-.3386233-.0345533-.6634253-.1105708-.9813165"/></g></g></svg>